<svg width="357" height="92" viewBox="0 0 357 92" fill="none" xmlns="http://www.w3.org/2000/svg">
<rect width="20.468" height="86.6882" fill="#F5F5F5"/>
<path d="M30.1001 60.2001C46.7239 60.2001 60.2002 46.7239 60.2002 30.1001C60.2002 13.4763 46.7239 0 30.1001 0V30.1001V60.2001Z" fill="#F5F5F5"/>
<path d="M113.479 86.6882L94.5669 53.2844H86.4616V86.6882H69.2684V0.968048H101.444C108.076 0.968048 113.725 2.15519 118.392 4.52948C123.058 6.8219 126.538 9.97398 128.83 13.9857C131.205 17.9156 132.392 22.3367 132.392 27.249C132.392 32.8982 130.754 38.0152 127.48 42.6C124.205 47.103 119.333 50.2141 112.865 51.9335L133.374 86.6882H113.479ZM86.4616 40.3895H100.83C105.497 40.3895 108.976 39.2842 111.269 37.0737C113.561 34.7812 114.707 31.6292 114.707 27.6174C114.707 23.6876 113.561 20.6583 111.269 18.5296C108.976 16.3191 105.497 15.2138 100.83 15.2138H86.4616V40.3895Z" fill="#F5F5F5"/>
<path d="M158.319 0.968048V86.6882H141.126V0.968048H158.319Z" fill="#F5F5F5"/>
<path d="M213.164 91.2176C204.913 91.2176 197.335 89.2811 190.431 85.4081C183.527 81.5351 178.054 76.1887 174.013 69.3688C169.972 62.4647 167.951 54.6766 167.951 46.0044C167.951 37.4164 169.972 29.7125 174.013 22.8926C178.054 15.9886 183.527 10.6 190.431 6.72699C197.335 2.85399 204.913 0.91748 213.164 0.91748C221.499 0.91748 229.077 2.85399 235.897 6.72699C242.801 10.6 248.232 15.9886 252.189 22.8926C256.23 29.7125 258.251 37.4164 258.251 46.0044C258.251 54.6766 256.23 62.4647 252.189 69.3688C248.232 76.1887 242.801 81.5351 235.897 85.4081C228.993 89.2811 221.415 91.2176 213.164 91.2176ZM213.164 75.4309C218.468 75.4309 223.141 74.2522 227.183 71.8947C231.224 69.453 234.382 66.001 236.655 61.5386C238.928 57.0762 240.065 51.8981 240.065 46.0044C240.065 40.1107 238.928 34.9747 236.655 30.5966C234.382 26.1342 231.224 22.7242 227.183 20.3667C223.141 18.0093 218.468 16.8305 213.164 16.8305C207.86 16.8305 203.145 18.0093 199.019 20.3667C194.978 22.7242 191.82 26.1342 189.547 30.5966C187.274 34.9747 186.137 40.1107 186.137 46.0044C186.137 51.8981 187.274 57.0762 189.547 61.5386C191.82 66.001 194.978 69.453 199.019 71.8947C203.145 74.2522 207.86 75.4309 213.164 75.4309Z" fill="#F5F5F5"/>
<path d="M310.89 86.6882L291.978 53.2844H283.872V86.6882H266.679V0.968048H298.855C305.486 0.968048 311.136 2.15519 315.802 4.52948C320.469 6.8219 323.949 9.97398 326.241 13.9857C328.615 17.9156 329.802 22.3367 329.802 27.249C329.802 32.8982 328.165 38.0152 324.89 42.6C321.615 47.103 316.744 50.2141 310.276 51.9335L330.785 86.6882H310.89ZM283.872 40.3895H298.241C302.907 40.3895 306.387 39.2842 308.679 37.0737C310.972 34.7812 312.118 31.6292 312.118 27.6174C312.118 23.6876 310.972 20.6583 308.679 18.5296C306.387 16.3191 302.907 15.2138 298.241 15.2138H283.872V40.3895Z" fill="#F5F5F5"/>
<path d="M356.526 0.968048V86.6882H339.333V43.8281V0.968048H356.526Z" fill="#F5F5F5"/>
</svg>
